<svg width="37" height="37" viewBox="0 0 37 37" fill="none" xmlns="http://www.w3.org/2000/svg">
<g filter="url(#filter0_bi_149_861)">
<path d="M18.8002 36.3103C28.6363 36.3103 36.6101 28.3365 36.6101 18.5004C36.6101 8.66421 28.6363 0.69043 18.8002 0.69043C8.96401 0.69043 0.990234 8.66421 0.990234 18.5004C0.990234 28.3365 8.96401 36.3103 18.8002 36.3103Z" fill="url(#paint0_linear_149_861)"/>
<path d="M36.3601 18.5004C36.3601 28.1984 28.4982 36.0603 18.8002 36.0603C9.10208 36.0603 1.24023 28.1984 1.24023 18.5004C1.24023 8.80228 9.10208 0.94043 18.8002 0.94043C28.4982 0.94043 36.3601 8.80228 36.3601 18.5004Z" stroke="url(#paint1_linear_149_861)" stroke-width="0.5"/>
</g>
<g filter="url(#filter1_d_149_861)">
<path fill-rule="evenodd" clip-rule="evenodd" d="M15.0937 17.7929C14.7032 18.1834 14.7032 18.8166 15.0937 19.2071L20.0937 24.2071C20.4842 24.5976 21.1174 24.5976 21.5079 24.2071C21.8984 23.8166 21.8984 23.1834 21.5079 22.7929L17.215 18.5L21.5079 14.2071C21.8984 13.8166 21.8984 13.1834 21.5079 12.7929C21.1174 12.4024 20.4842 12.4024 20.0937 12.7929L15.0937 17.7929Z" fill="white" stroke="url(#paint2_radial_149_861)" stroke-linecap="round" stroke-linejoin="round"/>
</g>
<defs>
<filter id="filter0_bi_149_861" x="-3.00977" y="-3.30957" width="43.6201" height="43.6196" filterUnits="userSpaceOnUse" color-interpolation-filters="sRGB">
<feFlood flood-opacity="0" result="BackgroundImageFix"/>
<feGaussianBlur in="BackgroundImage" stdDeviation="2"/>
<feComposite in2="SourceAlpha" operator="in" result="effect1_backgroundBlur_149_861"/>
<feBlend mode="normal" in="SourceGraphic" in2="effect1_backgroundBlur_149_861" result="shape"/>
<feColorMatrix in="SourceAlpha" type="matrix" values="0 0 0 0 0 0 0 0 0 0 0 0 0 0 0 0 0 0 127 0" result="hardAlpha"/>
<feOffset dx="-1" dy="2"/>
<feGaussianBlur stdDeviation="8.5"/>
<feComposite in2="hardAlpha" operator="arithmetic" k2="-1" k3="1"/>
<feColorMatrix type="matrix" values="0 0 0 0 1 0 0 0 0 1 0 0 0 0 1 0 0 0 0.86 0"/>
<feBlend mode="normal" in2="shape" result="effect2_innerShadow_149_861"/>
</filter>
<filter id="filter1_d_149_861" x="5.80078" y="5.5" width="30" height="30" filterUnits="userSpaceOnUse" color-interpolation-filters="sRGB">
<feFlood flood-opacity="0" result="BackgroundImageFix"/>
<feColorMatrix in="SourceAlpha" type="matrix" values="0 0 0 0 0 0 0 0 0 0 0 0 0 0 0 0 0 0 127 0" result="hardAlpha"/>
<feOffset dx="2" dy="2"/>
<feGaussianBlur stdDeviation="1.5"/>
<feComposite in2="hardAlpha" operator="out"/>
<feColorMatrix type="matrix" values="0 0 0 0 0.520833 0 0 0 0 0.520833 0 0 0 0 0.520833 0 0 0 0.25 0"/>
<feBlend mode="normal" in2="BackgroundImageFix" result="effect1_dropShadow_149_861"/>
<feBlend mode="normal" in="SourceGraphic" in2="effect1_dropShadow_149_861" result="shape"/>
</filter>
<linearGradient id="paint0_linear_149_861" x1="12.3336" y1="37.4728" x2="24.7421" y2="1.04789" gradientUnits="userSpaceOnUse">
<stop stop-color="white" stop-opacity="0.45"/>
<stop offset="1" stop-color="white" stop-opacity="0.52"/>
</linearGradient>
<linearGradient id="paint1_linear_149_861" x1="33.0137" y1="4.98024" x2="6.72423" y2="32.0475" gradientUnits="userSpaceOnUse">
<stop stop-color="#D9CEB3"/>
<stop offset="1" stop-color="#F3EFE6" stop-opacity="0.6"/>
</linearGradient>
<radialGradient id="paint2_radial_149_861" cx="0" cy="0" r="1" gradientUnits="userSpaceOnUse" gradientTransform="translate(17.2564 -0.904592) rotate(85.1296) scale(50.8661 8.24527)">
<stop stop-color="white" stop-opacity="0.44"/>
<stop offset="1" stop-color="#C0AF88"/>
</radialGradient>
</defs>
</svg>
