<svg width="21" height="21" viewBox="0 0 21 21" fill="none" xmlns="http://www.w3.org/2000/svg">
<path d="M11.7694 8.75132L18.4423 2.06982H13.7129V0.632325H20.9004V7.81982H19.4629V3.09045L12.7814 9.76476L11.7694 8.75276V8.75132ZM16.5203 12.4356C17.1135 12.4357 17.6828 12.6696 18.1045 13.0868C18.2626 13.2449 18.438 13.4088 18.632 13.5813L19.2501 14.1319C19.4658 14.3259 19.6685 14.5286 19.8553 14.7371C20.0422 14.9469 20.219 15.1611 20.3843 15.3782C20.5482 15.5938 20.6718 15.8267 20.7538 16.0739C20.8371 16.3212 20.886 16.5684 20.9004 16.8157C20.8998 17.4084 20.6659 17.9769 20.2492 18.3984C19.8668 18.7808 19.5233 19.1171 19.2156 19.4104C18.9243 19.6899 18.6044 19.9381 18.2611 20.1507C17.9305 20.3519 17.5611 20.5029 17.15 20.6006C16.674 20.705 16.1882 20.7575 15.701 20.7573C14.8484 20.7517 14.0011 20.6229 13.1853 20.3749C12.295 20.1088 11.4331 19.7554 10.6122 19.3198C9.73486 18.855 8.89774 18.3179 8.10952 17.7141C7.29159 17.0914 6.51824 16.4122 5.79514 15.6815C5.0692 14.9484 4.39502 14.1721 3.77402 13.3571C3.17346 12.5741 2.64336 11.7395 2.18989 10.863C1.76814 10.047 1.42263 9.19384 1.15777 8.31432C0.911052 7.51356 0.782243 6.68114 0.775391 5.84326C0.775391 5.27401 0.824266 4.78814 0.922016 4.38276C1.01265 3.99486 1.16401 3.62372 1.37052 3.28307C1.57177 2.95245 1.82045 2.6362 2.11227 2.32857C2.40408 2.02095 2.74477 1.67307 3.13289 1.28351C3.55495 0.865986 4.12477 0.631961 4.71845 0.632325C5.0922 0.632325 5.45158 0.73295 5.79658 0.9342C6.14158 1.13832 6.47508 1.38414 6.79708 1.67739C7.11764 1.9692 7.4152 2.27539 7.68402 2.59739C7.95283 2.91939 8.20727 3.19682 8.44589 3.42826C8.86307 3.84996 9.09706 4.4192 9.09708 5.01239C9.10222 5.28147 9.05334 5.54884 8.95333 5.7987C8.86232 6.02018 8.74141 6.22816 8.59395 6.41682C8.45015 6.59747 8.29199 6.76621 8.12102 6.92139C7.94852 7.07951 7.79183 7.22901 7.64952 7.37132C7.51743 7.50201 7.39356 7.64075 7.27864 7.78676C7.17679 7.91335 7.12511 8.073 7.13345 8.23526C7.13345 8.32582 7.20102 8.46814 7.3347 8.6622C7.50827 8.90492 7.69595 9.13724 7.89677 9.35795C8.45505 9.98523 9.0357 10.5922 9.63758 11.1778C9.97395 11.5084 10.3003 11.8247 10.6151 12.1323C10.9285 12.4399 11.2332 12.7318 11.525 13.0092C11.8168 13.2852 12.0641 13.5209 12.2653 13.7164C12.4666 13.9105 12.6247 14.0614 12.7368 14.1649C12.8649 14.2977 13.0365 14.38 13.2202 14.3966C13.4039 14.4133 13.5875 14.3632 13.7373 14.2555C13.871 14.1578 14.0105 14.037 14.1528 13.8961C14.2951 13.7524 14.4403 13.5957 14.5898 13.4232C14.7393 13.2507 14.9118 13.094 15.1073 12.9517C15.3013 12.8094 15.5069 12.6858 15.7254 12.5808C15.9757 12.4705 16.2486 12.4207 16.5218 12.4356H16.5203ZM15.701 19.3198C16.1581 19.3198 16.539 19.2781 16.8466 19.1962C17.1469 19.1168 17.4316 18.9875 17.689 18.8138C17.9435 18.6413 18.1821 18.4401 18.4078 18.2086C18.632 17.9758 18.9051 17.7026 19.2271 17.3893C19.3853 17.2311 19.4629 17.0443 19.4629 16.8272C19.4629 16.7294 19.4025 16.5914 19.2832 16.4103C19.1419 16.2023 18.9918 16.0003 18.8333 15.8051C18.6418 15.567 18.4353 15.3414 18.2151 15.1295C17.9851 14.9067 17.7595 14.6997 17.5424 14.5128C17.3535 14.3476 17.1547 14.194 16.9473 14.0528C16.7676 13.9335 16.6253 13.8731 16.5203 13.8731C16.3595 13.8743 16.2029 13.925 16.0718 14.0183C15.9205 14.123 15.7807 14.2434 15.655 14.3777C15.5213 14.5214 15.3746 14.6781 15.218 14.8506C15.0598 15.0231 14.8873 15.1798 14.7005 15.3221C14.5136 15.4644 14.308 15.5881 14.0823 15.693C13.8355 15.8017 13.5668 15.8514 13.2975 15.8382C13.0025 15.8401 12.7102 15.7825 12.4381 15.6688C12.1659 15.5552 11.9194 15.3879 11.7133 15.1769L6.3572 9.81795C6.15037 9.61257 5.98622 9.3683 5.8742 9.0992C5.76078 8.8245 5.69983 8.53097 5.69452 8.23382C5.69452 7.94201 5.74339 7.68326 5.8397 7.45901C5.93745 7.23476 6.05677 7.02489 6.19908 6.82939C6.34283 6.63532 6.49952 6.46714 6.67202 6.32482C6.84452 6.18251 7.0012 6.03301 7.14352 5.87489C7.28583 5.7182 7.40945 5.5802 7.51439 5.45945C7.62027 5.33508 7.67249 5.17378 7.65958 5.01095C7.65958 4.9132 7.5992 4.7752 7.47989 4.59407C7.34057 4.38869 7.19087 4.19054 7.03139 4.00039C6.836 3.76612 6.62973 3.54115 6.41327 3.3262C6.19832 3.10973 5.97335 2.90346 5.73908 2.70807C5.54414 2.54538 5.34171 2.39188 5.13245 2.24807C4.94558 2.12014 4.80758 2.0612 4.71702 2.06839C4.61061 2.06652 4.50494 2.08648 4.40655 2.12703C4.30815 2.16757 4.2191 2.22785 4.14489 2.30414C3.87342 2.57558 3.60029 2.84536 3.32552 3.11345C3.09831 3.33076 2.89494 3.57171 2.71889 3.8322C2.5485 4.08999 2.4231 4.37482 2.34802 4.67457C2.2585 5.046 2.21314 5.4267 2.21289 5.80876C2.21289 6.52751 2.32789 7.26782 2.56077 8.03114C2.80807 8.83169 3.13155 9.6067 3.52677 10.3455C3.93933 11.1232 4.43239 11.8808 5.00883 12.6139C5.58527 13.347 6.20339 14.0471 6.8632 14.7126C8.15512 16.0199 9.63006 17.1327 11.2418 18.016C11.967 18.4116 12.731 18.7315 13.5217 18.9705C14.2284 19.1873 14.9619 19.3044 15.701 19.3184V19.3198Z" fill="white"/>
</svg>
