<svg width="27" height="26" viewBox="0 0 27 26" fill="none" xmlns="http://www.w3.org/2000/svg">
<path d="M14.553 10.803L22.0963 3.25H16.75V1.625H24.875V9.75H23.25V4.40375L15.697 11.9486L14.553 10.8046V10.803ZM19.9236 14.9679C20.5942 14.9679 21.2377 15.2324 21.7144 15.704C21.8931 15.8827 22.0914 16.068 22.3107 16.263L23.0095 16.8854C23.2533 17.1047 23.4824 17.3339 23.6936 17.5695C23.9049 17.8067 24.1047 18.0489 24.2916 18.2942C24.4769 18.538 24.6166 18.8012 24.7092 19.0807C24.8035 19.3602 24.8587 19.6397 24.875 19.9192C24.8744 20.5892 24.6099 21.232 24.1389 21.7084C23.7066 22.1406 23.3183 22.5209 22.9705 22.8524C22.6412 23.1684 22.2795 23.4489 21.8915 23.6892C21.5177 23.9167 21.1001 24.0874 20.6354 24.1979C20.0974 24.3159 19.5482 24.3752 18.9974 24.375C18.0336 24.3686 17.0758 24.2231 16.1536 23.9427C15.1471 23.6419 14.1728 23.2424 13.2449 22.75C12.2531 22.2245 11.3068 21.6174 10.4158 20.9349C9.49114 20.2309 8.61692 19.4631 7.7995 18.6371C6.97888 17.8084 6.21675 16.9309 5.51475 16.0095C4.83586 15.1244 4.23661 14.1809 3.724 13.1901C3.24723 12.2677 2.85666 11.3032 2.55725 10.309C2.27836 9.40379 2.13275 8.46279 2.125 7.51562C2.125 6.87213 2.18025 6.32288 2.29075 5.86462C2.3932 5.42613 2.56431 5.00658 2.79775 4.6215C3.02525 4.24775 3.30637 3.89025 3.63625 3.5425C3.96612 3.19475 4.35125 2.8015 4.79 2.36113C5.26711 1.88914 5.91126 1.62459 6.58238 1.625C7.00487 1.625 7.41113 1.73875 7.80113 1.96625C8.19112 2.197 8.56812 2.47488 8.93212 2.80638C9.2945 3.13625 9.63088 3.48238 9.93475 3.84638C10.2386 4.21038 10.5262 4.524 10.796 4.78562C11.2676 5.26233 11.5321 5.90582 11.5321 6.57638C11.5379 6.88055 11.4827 7.1828 11.3696 7.46525C11.2667 7.71562 11.1301 7.95073 10.9634 8.164C10.8008 8.36821 10.622 8.55895 10.4288 8.73438C10.2338 8.91312 10.0566 9.08213 9.89575 9.243C9.74643 9.39073 9.60641 9.54757 9.4765 9.71263C9.36136 9.85572 9.30294 10.0362 9.31237 10.2196C9.31237 10.322 9.38875 10.4829 9.53988 10.7022C9.73608 10.9766 9.94824 11.2393 10.1753 11.4887C10.8064 12.1978 11.4627 12.884 12.1431 13.546C12.5234 13.9198 12.8922 14.2772 13.2481 14.625C13.6024 14.9727 13.9469 15.3026 14.2767 15.6162C14.6066 15.9282 14.8861 16.1947 15.1136 16.4157C15.3411 16.6351 15.5199 16.8057 15.6466 16.9227C15.7914 17.0729 15.9854 17.1658 16.1931 17.1846C16.4007 17.2034 16.6083 17.1468 16.7776 17.0251C16.9288 16.9146 17.0864 16.7781 17.2472 16.6189C17.4081 16.4564 17.5722 16.2792 17.7412 16.0842C17.9102 15.8892 18.1053 15.7121 18.3263 15.5512C18.5456 15.3904 18.778 15.2506 19.025 15.132C19.308 15.0073 19.6164 14.951 19.9253 14.9679H19.9236ZM18.9974 22.75C19.5141 22.75 19.9447 22.7029 20.2925 22.6102C20.6319 22.5205 20.9538 22.3744 21.2447 22.178C21.5324 21.983 21.8021 21.7555 22.0572 21.4939C22.3107 21.2306 22.6195 20.9219 22.9835 20.5676C23.1622 20.3889 23.25 20.1776 23.25 19.9322C23.25 19.8217 23.1817 19.6657 23.0469 19.461C22.8872 19.2258 22.7175 18.9975 22.5382 18.7769C22.3218 18.5077 22.0884 18.2526 21.8395 18.0131C21.5795 17.7612 21.3244 17.5272 21.079 17.316C20.8655 17.1292 20.6408 16.9556 20.4062 16.796C20.2031 16.6611 20.0422 16.5929 19.9236 16.5929C19.7418 16.5942 19.5648 16.6515 19.4166 16.757C19.2456 16.8753 19.0876 17.0115 18.9454 17.1632C18.7942 17.3257 18.6285 17.5029 18.4514 17.6979C18.2726 17.8929 18.0776 18.07 17.8664 18.2309C17.6551 18.3917 17.4227 18.5315 17.1676 18.6501C16.8886 18.773 16.5849 18.8292 16.2804 18.8142C15.947 18.8163 15.6166 18.7512 15.3089 18.6228C15.0012 18.4944 14.7226 18.3053 14.4896 18.0667L8.43487 12.0087C8.20106 11.7766 8.0155 11.5004 7.88888 11.1962C7.76066 10.8857 7.69176 10.5539 7.68575 10.218C7.68575 9.88812 7.741 9.59562 7.84987 9.34212C7.96037 9.08862 8.09525 8.85137 8.25612 8.63037C8.41862 8.411 8.59575 8.22087 8.79075 8.06C8.98575 7.89913 9.16287 7.73012 9.32375 7.55137C9.48462 7.37425 9.62438 7.21825 9.743 7.08175C9.86269 6.94115 9.92172 6.75882 9.90712 6.57475C9.90712 6.46425 9.83887 6.30825 9.704 6.1035C9.5465 5.87133 9.37728 5.64733 9.197 5.43237C8.97612 5.16756 8.74295 4.91323 8.49825 4.67025C8.25527 4.42555 8.00095 4.19237 7.73612 3.9715C7.51576 3.78759 7.28693 3.61407 7.05037 3.4515C6.83913 3.30688 6.68313 3.24025 6.58075 3.24838C6.46046 3.24627 6.34102 3.26883 6.22978 3.31466C6.11855 3.3605 6.01789 3.42864 5.934 3.51488C5.62713 3.82173 5.31837 4.12669 5.00775 4.42975C4.7509 4.67541 4.52102 4.94778 4.322 5.24225C4.12939 5.53366 3.98763 5.85565 3.90275 6.1945C3.80156 6.61438 3.75029 7.04473 3.75 7.47662C3.75 8.28912 3.88 9.126 4.14325 9.98887C4.42281 10.8939 4.78848 11.7699 5.23525 12.6051C5.70162 13.4842 6.259 14.3406 6.91062 15.1694C7.56225 15.9981 8.261 16.7895 9.00688 17.5419C10.4673 19.0197 12.1346 20.2776 13.9566 21.2761C14.7764 21.7233 15.64 22.0849 16.5339 22.3551C17.3327 22.6002 18.1619 22.7325 18.9974 22.7484V22.75Z" fill="#6E8FB6"/>
</svg>
