<svg width="36" height="37" viewBox="0 0 36 37" fill="none" xmlns="http://www.w3.org/2000/svg">
<g filter="url(#filter0_bi_100_103)">
<path d="M17.889 36.154C27.7252 36.154 35.699 28.1803 35.699 18.3441C35.699 8.50796 27.7252 0.53418 17.889 0.53418C8.05288 0.53418 0.0791016 8.50796 0.0791016 18.3441C0.0791016 28.1803 8.05288 36.154 17.889 36.154Z" fill="url(#paint0_linear_100_103)"/>
<path d="M35.449 18.3441C35.449 28.0422 27.5871 35.904 17.889 35.904C8.19095 35.904 0.329102 28.0422 0.329102 18.3441C0.329102 8.64603 8.19095 0.78418 17.889 0.78418C27.5871 0.78418 35.449 8.64603 35.449 18.3441Z" stroke="url(#paint1_linear_100_103)" stroke-width="0.5"/>
</g>
<g filter="url(#filter1_d_100_103)">
<path d="M23.5263 12.708H22.557L21.1601 10.7451C21.0517 10.5886 20.8711 10.4983 20.6784 10.4983H15.1091C14.9164 10.4983 14.7418 10.5886 14.6274 10.7451L13.2305 12.708H12.2612C10.7499 12.708 9.51562 13.9423 9.51562 15.4535V23.4433C9.51562 24.9546 10.7499 26.1888 12.2612 26.1888H23.5203C25.0316 26.1888 26.2659 24.9546 26.2659 23.4433V15.4535C26.2719 13.9423 25.0376 12.708 23.5263 12.708ZM17.8968 23.4312C15.663 23.4312 13.8507 21.6189 13.8507 19.3852C13.8507 17.1514 15.663 15.3391 17.8968 15.3391C20.1305 15.3391 21.9428 17.1514 21.9428 19.3852C21.9428 21.6189 20.1305 23.4312 17.8968 23.4312Z" fill="url(#paint2_linear_100_103)"/>
<path d="M17.8961 22.0588C19.3759 22.0588 20.5754 20.8593 20.5754 19.3795C20.5754 17.8998 19.3759 16.7002 17.8961 16.7002C16.4164 16.7002 15.2168 17.8998 15.2168 19.3795C15.2168 20.8593 16.4164 22.0588 17.8961 22.0588Z" fill="url(#paint3_linear_100_103)"/>
</g>
<defs>
<filter id="filter0_bi_100_103" x="-3.9209" y="-3.46582" width="43.6201" height="43.6199" filterUnits="userSpaceOnUse" color-interpolation-filters="sRGB">
<feFlood flood-opacity="0" result="BackgroundImageFix"/>
<feGaussianBlur in="BackgroundImage" stdDeviation="2"/>
<feComposite in2="SourceAlpha" operator="in" result="effect1_backgroundBlur_100_103"/>
<feBlend mode="normal" in="SourceGraphic" in2="effect1_backgroundBlur_100_103" result="shape"/>
<feColorMatrix in="SourceAlpha" type="matrix" values="0 0 0 0 0 0 0 0 0 0 0 0 0 0 0 0 0 0 127 0" result="hardAlpha"/>
<feOffset dx="-1" dy="2"/>
<feGaussianBlur stdDeviation="8.5"/>
<feComposite in2="hardAlpha" operator="arithmetic" k2="-1" k3="1"/>
<feColorMatrix type="matrix" values="0 0 0 0 1 0 0 0 0 1 0 0 0 0 1 0 0 0 0.86 0"/>
<feBlend mode="normal" in2="shape" result="effect2_innerShadow_100_103"/>
</filter>
<filter id="filter1_d_100_103" x="8.51562" y="9.49829" width="22.75" height="21.6907" filterUnits="userSpaceOnUse" color-interpolation-filters="sRGB">
<feFlood flood-opacity="0" result="BackgroundImageFix"/>
<feColorMatrix in="SourceAlpha" type="matrix" values="0 0 0 0 0 0 0 0 0 0 0 0 0 0 0 0 0 0 127 0" result="hardAlpha"/>
<feOffset dx="2" dy="2"/>
<feGaussianBlur stdDeviation="1.5"/>
<feComposite in2="hardAlpha" operator="out"/>
<feColorMatrix type="matrix" values="0 0 0 0 0.520833 0 0 0 0 0.520833 0 0 0 0 0.520833 0 0 0 0.25 0"/>
<feBlend mode="normal" in2="BackgroundImageFix" result="effect1_dropShadow_100_103"/>
<feBlend mode="normal" in="SourceGraphic" in2="effect1_dropShadow_100_103" result="shape"/>
</filter>
<linearGradient id="paint0_linear_100_103" x1="11.4224" y1="37.3166" x2="23.831" y2="0.891642" gradientUnits="userSpaceOnUse">
<stop stop-color="white" stop-opacity="0.45"/>
<stop offset="1" stop-color="white" stop-opacity="0.52"/>
</linearGradient>
<linearGradient id="paint1_linear_100_103" x1="32.1026" y1="4.82399" x2="5.8131" y2="31.8913" gradientUnits="userSpaceOnUse">
<stop stop-color="white"/>
<stop offset="1" stop-color="white" stop-opacity="0"/>
</linearGradient>
<linearGradient id="paint2_linear_100_103" x1="17.8908" y1="10.4983" x2="17.8908" y2="26.1888" gradientUnits="userSpaceOnUse">
<stop stop-color="white"/>
<stop offset="1" stop-color="white" stop-opacity="0.7"/>
</linearGradient>
<linearGradient id="paint3_linear_100_103" x1="17.8961" y1="16.7002" x2="17.8961" y2="22.0588" gradientUnits="userSpaceOnUse">
<stop stop-color="white"/>
<stop offset="1" stop-color="white" stop-opacity="0.7"/>
</linearGradient>
</defs>
</svg>
