<svg width="22" height="21" viewBox="0 0 22 21" fill="none" xmlns="http://www.w3.org/2000/svg">
<path d="M16.4079 6.40308H21.1995V8.31974H16.4079V6.40308ZM14.4912 11.1947H21.1995V13.1114H14.4912V11.1947ZM17.3662 15.9864H21.1995V17.9031H17.3662V15.9864ZM0.116211 20.7781C0.116211 18.7448 0.923947 16.7947 2.36173 15.3569C3.7995 13.9191 5.74955 13.1114 7.78288 13.1114C9.8162 13.1114 11.7663 13.9191 13.204 15.3569C14.6418 16.7947 15.4495 18.7448 15.4495 20.7781H13.5329C13.5329 19.2531 12.9271 17.7905 11.8487 16.7122C10.7704 15.6339 9.30787 15.0281 7.78288 15.0281C6.25788 15.0281 4.79535 15.6339 3.71701 16.7122C2.63868 17.7905 2.03288 19.2531 2.03288 20.7781H0.116211ZM7.78288 12.1531C4.606 12.1531 2.03288 9.57995 2.03288 6.40308C2.03288 3.2262 4.606 0.653076 7.78288 0.653076C10.9598 0.653076 13.5329 3.2262 13.5329 6.40308C13.5329 9.57995 10.9598 12.1531 7.78288 12.1531ZM7.78288 10.2364C9.90079 10.2364 11.6162 8.52099 11.6162 6.40308C11.6162 4.28516 9.90079 2.56974 7.78288 2.56974C5.66496 2.56974 3.94954 4.28516 3.94954 6.40308C3.94954 8.52099 5.66496 10.2364 7.78288 10.2364Z" fill="white"/>
</svg>
