<svg width="22" height="22" viewBox="0 0 22 22" fill="none" xmlns="http://www.w3.org/2000/svg">
<path d="M17.2084 6.70831H22V8.62498H17.2084V6.70831ZM15.2917 11.5H22V13.4166H15.2917V11.5ZM18.1667 16.2916H22V18.2083H18.1667V16.2916ZM0.916687 21.0833C0.916687 19.05 1.72442 17.0999 3.1622 15.6622C4.59998 14.2244 6.55003 13.4166 8.58335 13.4166C10.6167 13.4166 12.5667 14.2244 14.0045 15.6622C15.4423 17.0999 16.25 19.05 16.25 21.0833H14.3334C14.3334 19.5583 13.7276 18.0958 12.6492 17.0175C11.5709 15.9391 10.1083 15.3333 8.58335 15.3333C7.05836 15.3333 5.59582 15.9391 4.51749 17.0175C3.43916 18.0958 2.83335 19.5583 2.83335 21.0833H0.916687ZM8.58335 12.4583C5.40648 12.4583 2.83335 9.88519 2.83335 6.70831C2.83335 3.53144 5.40648 0.958313 8.58335 0.958313C11.7602 0.958313 14.3334 3.53144 14.3334 6.70831C14.3334 9.88519 11.7602 12.4583 8.58335 12.4583ZM8.58335 10.5416C10.7013 10.5416 12.4167 8.82623 12.4167 6.70831C12.4167 4.5904 10.7013 2.87498 8.58335 2.87498C6.46544 2.87498 4.75002 4.5904 4.75002 6.70831C4.75002 8.82623 6.46544 10.5416 8.58335 10.5416Z" fill="#6E8FB6"/>
</svg>
