<svg width="20" height="20" viewBox="0 0 20 20" fill="none" xmlns="http://www.w3.org/2000/svg">
<path d="M10.6224 1.90391C10.4163 1.88889 10.2096 1.88136 10.0029 1.88135V0.693848C10.2393 0.693961 10.4757 0.702676 10.7114 0.719973L10.6224 1.90391ZM13.033 2.43829C12.6474 2.2914 12.2514 2.17272 11.8482 2.08322L12.1116 0.924223C12.5723 1.02635 13.0258 1.16172 13.466 1.33035L13.033 2.43829ZM14.6809 3.28141C14.509 3.16818 14.3328 3.06123 14.1529 2.96079L14.7459 1.92766C15.1572 2.15772 15.5508 2.41729 15.9235 2.70429L15.1837 3.64122C15.0207 3.51562 14.8529 3.396 14.6809 3.2826V3.28141ZM16.887 5.40704C16.6491 5.07332 16.3866 4.75738 16.1015 4.46179L16.9724 3.64241C17.2972 3.98085 17.5979 4.34303 17.871 4.72303L16.887 5.40704ZM17.782 7.01254C17.703 6.82427 17.6172 6.63889 17.5246 6.45679L18.5987 5.92241C18.8112 6.33932 18.9921 6.77117 19.14 7.21441L17.9973 7.5861C17.9326 7.39237 17.8608 7.20106 17.782 7.01254ZM18.4195 9.9896C18.4098 9.5815 18.3696 9.17467 18.2992 8.77241L19.484 8.57054C19.5646 9.02891 19.6116 9.49441 19.6236 9.95991L18.4207 9.9896H18.4195ZM18.2619 11.816C18.3016 11.6141 18.3341 11.4134 18.3594 11.2103L19.5538 11.3564C19.496 11.8197 19.4036 12.2782 19.2772 12.728L18.1176 12.4109C18.1729 12.215 18.221 12.0167 18.2619 11.816ZM17.1168 14.641C17.3381 14.2967 17.533 13.9357 17.7014 13.5628L18.8008 14.0437C18.6083 14.4712 18.3858 14.8821 18.1332 15.2763L17.1168 14.641ZM15.9572 16.072C16.1039 15.9271 16.2447 15.7775 16.3782 15.6231L17.29 16.3985C17.1356 16.5753 16.9747 16.7464 16.8076 16.9115L15.9572 16.072Z" fill="white"/>
<path d="M10.0028 1.88135C8.61813 1.88145 7.25486 2.21865 6.03373 2.8631C4.81261 3.50755 3.77132 4.43934 3.00209 5.57596C2.23286 6.71257 1.75943 8.01892 1.62375 9.3793C1.48806 10.7397 1.6943 12.1121 2.22421 13.375C2.75411 14.6379 3.59131 15.7523 4.66166 16.6195C5.73202 17.4867 7.00249 18.0799 8.36054 18.3466C9.71859 18.6133 11.1223 18.5453 12.4474 18.1485C13.7724 17.7517 14.9779 17.0385 15.9571 16.072L16.8075 16.9115C15.6885 18.0168 14.3106 18.8326 12.7959 19.2865C11.2812 19.7405 9.67653 19.8186 8.12397 19.5139C6.5714 19.2093 5.11892 18.5313 3.89522 17.54C2.67151 16.5487 1.71437 15.2748 1.1086 13.831C0.502829 12.3873 0.267128 10.8183 0.422381 9.26317C0.577635 7.708 1.11905 6.21465 1.99865 4.91543C2.87826 3.61621 4.0689 2.55123 5.46507 1.81485C6.86125 1.07847 8.41985 0.693434 10.0028 0.693848V1.88135Z" fill="white"/>
<path d="M9.40125 4.25635C9.56076 4.25635 9.71374 4.3189 9.82653 4.43025C9.93932 4.5416 10.0027 4.69263 10.0027 4.8501V11.037L13.9096 13.241C14.0441 13.3211 14.1415 13.4499 14.1811 13.5999C14.2206 13.75 14.1991 13.9093 14.1212 14.044C14.0433 14.1786 13.9151 14.2778 13.7641 14.3203C13.6131 14.3629 13.4512 14.3454 13.313 14.2717L9.10293 11.8967C9.01088 11.8448 8.93436 11.7698 8.88113 11.6793C8.82789 11.5888 8.79984 11.486 8.7998 11.3813V4.8501C8.7998 4.69263 8.86317 4.5416 8.97596 4.43025C9.08875 4.3189 9.24173 4.25635 9.40125 4.25635Z" fill="white"/>
</svg>
