<svg width="19" height="20" viewBox="0 0 19 20" fill="none" xmlns="http://www.w3.org/2000/svg">
<path d="M8.28398 1.12234C8.62889 0.845631 9.05785 0.694824 9.50004 0.694824C9.94222 0.694824 10.3712 0.845631 10.7161 1.12234L17.4096 6.49268C17.6367 6.67485 17.8199 6.90573 17.9458 7.16823C18.0716 7.43074 18.1369 7.71817 18.1368 8.00929V17.7516C18.1368 18.2669 17.9321 18.7612 17.5676 19.1257C17.2032 19.4901 16.7089 19.6948 16.1935 19.6948H13.6025C13.0871 19.6948 12.5928 19.4901 12.2284 19.1257C11.864 18.7612 11.6592 18.2669 11.6592 17.7516V12.5695C11.6592 12.3977 11.591 12.2329 11.4695 12.1115C11.348 11.99 11.1833 11.9217 11.0115 11.9217H7.9886C7.81681 11.9217 7.65205 11.99 7.53057 12.1115C7.40909 12.2329 7.34085 12.3977 7.34085 12.5695V17.7516C7.34085 18.2669 7.13611 18.7612 6.77168 19.1257C6.40724 19.4901 5.91297 19.6948 5.39758 19.6948H2.80655C2.29116 19.6948 1.79689 19.4901 1.43245 19.1257C1.06802 18.7612 0.863281 18.2669 0.863281 17.7516V8.00929C0.863281 7.42026 1.13102 6.86233 1.5905 6.49354L8.28398 1.1232V1.12234ZM9.9051 2.13284C9.79018 2.04075 9.64731 1.99057 9.50004 1.99057C9.35277 1.99057 9.2099 2.04075 9.09497 2.13284L2.40149 7.50318C2.32578 7.56384 2.26467 7.64074 2.22266 7.72819C2.18066 7.81564 2.15883 7.91141 2.15879 8.00843V17.7507C2.15879 18.1091 2.44899 18.3984 2.80655 18.3984H5.39758C5.56937 18.3984 5.73413 18.3302 5.85561 18.2087C5.97709 18.0872 6.04533 17.9225 6.04533 17.7507V12.5686C6.04533 12.0532 6.25007 11.559 6.61451 11.1945C6.97894 10.8301 7.47322 10.6254 7.9886 10.6254H11.0115C11.2667 10.6254 11.5195 10.6757 11.7553 10.7734C11.9912 10.8711 12.2054 11.0143 12.3859 11.1948C12.5663 11.3754 12.7095 11.5897 12.8071 11.8256C12.9047 12.0614 12.9549 12.3142 12.9547 12.5695V17.7516C12.9547 18.11 13.2449 18.3993 13.6025 18.3993H16.1935C16.3653 18.3993 16.5301 18.3311 16.6516 18.2096C16.773 18.0881 16.8413 17.9233 16.8413 17.7516V8.00929C16.8413 7.91235 16.8197 7.81662 16.7778 7.72918C16.7359 7.64173 16.675 7.56479 16.5994 7.50404L9.90596 2.13371L9.9051 2.13284Z" fill="white"/>
</svg>
