<svg width="27" height="27" viewBox="0 0 27 27" fill="none" xmlns="http://www.w3.org/2000/svg">
<g filter="url(#filter0_d_333_1722)">
<path d="M18.6632 18.3952H7.78648C5.74452 18.3952 4.08069 16.7314 4.08069 14.6894V3.98459C4.08069 1.94263 5.74452 0.278809 7.78648 0.278809H18.6632C20.7051 0.278809 22.3689 1.94263 22.3689 3.98459V14.6963C22.3621 16.7382 20.7051 18.3952 18.6632 18.3952ZM7.7796 1.63324C6.48017 1.63324 5.42826 2.68516 5.42826 3.98459V14.6963C5.42826 15.9957 6.48017 17.0476 7.7796 17.0476H18.6563C19.9557 17.0476 21.0076 15.9957 21.0076 14.6963V3.98459C21.0076 2.68516 19.9557 1.63324 18.6563 1.63324H7.7796Z" fill="white"/>
<path d="M13.2183 14.7926C16.2228 14.7926 18.6704 12.345 18.6704 9.34051C18.6704 6.33601 16.2228 3.88841 13.2183 3.88841C10.2138 3.88841 7.7662 6.33601 7.7662 9.34051C7.7662 12.345 10.2138 14.7926 13.2183 14.7926ZM9.09313 9.34051C9.09313 7.05792 10.9495 5.20847 13.2252 5.20847C15.5009 5.20847 17.3572 7.06479 17.3572 9.34051C17.3572 11.6162 15.5009 13.4726 13.2252 13.4726C10.9426 13.4726 9.09313 11.6162 9.09313 9.34051Z" fill="white"/>
</g>
<defs>
<filter id="filter0_d_333_1722" x="0.0806885" y="0.278809" width="26.2883" height="26.1164" filterUnits="userSpaceOnUse" color-interpolation-filters="sRGB">
<feFlood flood-opacity="0" result="BackgroundImageFix"/>
<feColorMatrix in="SourceAlpha" type="matrix" values="0 0 0 0 0 0 0 0 0 0 0 0 0 0 0 0 0 0 127 0" result="hardAlpha"/>
<feOffset dy="4"/>
<feGaussianBlur stdDeviation="2"/>
<feComposite in2="hardAlpha" operator="out"/>
<feColorMatrix type="matrix" values="0 0 0 0 0 0 0 0 0 0 0 0 0 0 0 0 0 0 0.05 0"/>
<feBlend mode="normal" in2="BackgroundImageFix" result="effect1_dropShadow_333_1722"/>
<feBlend mode="normal" in="SourceGraphic" in2="effect1_dropShadow_333_1722" result="shape"/>
</filter>
</defs>
</svg>
