<svg width="17" height="21" viewBox="0 0 17 21" fill="none" xmlns="http://www.w3.org/2000/svg">
<path d="M0.833008 20.5625C0.833008 18.5292 1.64074 16.5791 3.07852 15.1413C4.5163 13.7036 6.46635 12.8958 8.49967 12.8958C10.533 12.8958 12.483 13.7036 13.9208 15.1413C15.3586 16.5791 16.1663 18.5292 16.1663 20.5625H14.2497C14.2497 19.0375 13.6439 17.575 12.5655 16.4966C11.4872 15.4183 10.0247 14.8125 8.49967 14.8125C6.97468 14.8125 5.51215 15.4183 4.43381 16.4966C3.35548 17.575 2.74967 19.0375 2.74967 20.5625H0.833008ZM8.49967 11.9375C5.3228 11.9375 2.74967 9.36438 2.74967 6.1875C2.74967 3.01063 5.3228 0.4375 8.49967 0.4375C11.6765 0.4375 14.2497 3.01063 14.2497 6.1875C14.2497 9.36438 11.6765 11.9375 8.49967 11.9375ZM8.49967 10.0208C10.6176 10.0208 12.333 8.30542 12.333 6.1875C12.333 4.06958 10.6176 2.35417 8.49967 2.35417C6.38176 2.35417 4.66634 4.06958 4.66634 6.1875C4.66634 8.30542 6.38176 10.0208 8.49967 10.0208Z" fill="white"/>
</svg>
