<svg width="17" height="21" viewBox="0 0 17 21" fill="none" xmlns="http://www.w3.org/2000/svg">
<path d="M0.833313 20.5625C0.833313 18.5292 1.64105 16.5791 3.07883 15.1413C4.51661 13.7036 6.46665 12.8958 8.49998 12.8958C10.5333 12.8958 12.4834 13.7036 13.9211 15.1413C15.3589 16.5791 16.1666 18.5292 16.1666 20.5625H14.25C14.25 19.0375 13.6442 17.575 12.5658 16.4966C11.4875 15.4183 10.025 14.8125 8.49998 14.8125C6.97499 14.8125 5.51245 15.4183 4.43412 16.4966C3.35578 17.575 2.74998 19.0375 2.74998 20.5625H0.833313ZM8.49998 11.9375C5.3231 11.9375 2.74998 9.36438 2.74998 6.1875C2.74998 3.01063 5.3231 0.4375 8.49998 0.4375C11.6769 0.4375 14.25 3.01063 14.25 6.1875C14.25 9.36438 11.6769 11.9375 8.49998 11.9375ZM8.49998 10.0208C10.6179 10.0208 12.3333 8.30542 12.3333 6.1875C12.3333 4.06958 10.6179 2.35417 8.49998 2.35417C6.38206 2.35417 4.66665 4.06958 4.66665 6.1875C4.66665 8.30542 6.38206 10.0208 8.49998 10.0208Z" fill="#6E8FB6"/>
</svg>
