<svg width="26" height="26" viewBox="0 0 26 26" fill="none" xmlns="http://www.w3.org/2000/svg">
<path d="M23.0844 5.69687L25 3.85625V3.45312H18.3656L13.6375 15.2781L8.25937 3.45312H1.30312V3.85625L3.54063 6.5625C3.75938 6.7625 3.87187 7.05625 3.84375 7.35V17.9844C3.9125 18.3688 3.79062 18.7594 3.52187 19.0375L1 22.1094V22.5063H8.14375V22.1031L5.625 19.0406C5.49005 18.9036 5.38854 18.7373 5.32837 18.5546C5.26821 18.372 5.25101 18.1779 5.27812 17.9875V8.7875L11.55 22.5125H12.2781L17.6719 8.7875V19.7219C17.6719 20.0094 17.6719 20.0687 17.4844 20.2594L15.5438 22.1437V22.5469H24.9562V22.1437L23.0844 20.3031C22.9219 20.1781 22.8375 19.9688 22.8719 19.7656V6.23438C22.8557 6.13395 22.8669 6.03103 22.9043 5.93643C22.9417 5.84184 23.0039 5.75908 23.0844 5.69687V5.69687Z" fill="white"/>
</svg>
