<svg width="18" height="13" viewBox="0 0 18 13" fill="none" xmlns="http://www.w3.org/2000/svg">
<path d="M0 1.19482C0 0.64254 0.447715 0.194824 1 0.194824H17C17.5523 0.194824 18 0.64254 18 1.19482C18 1.74711 17.5523 2.19482 17 2.19482H1C0.447716 2.19482 0 1.74711 0 1.19482Z" fill="white"/>
<path d="M0 6.19482C0 5.64254 0.447715 5.19482 1 5.19482H17C17.5523 5.19482 18 5.64254 18 6.19482C18 6.74711 17.5523 7.19482 17 7.19482H1C0.447716 7.19482 0 6.74711 0 6.19482Z" fill="white"/>
<path d="M0 11.1948C0 10.6425 0.447715 10.1948 1 10.1948H17C17.5523 10.1948 18 10.6425 18 11.1948C18 11.7471 17.5523 12.1948 17 12.1948H1C0.447716 12.1948 0 11.7471 0 11.1948Z" fill="white"/>
</svg>
