<svg width="26" height="26" viewBox="0 0 26 26" fill="none" xmlns="http://www.w3.org/2000/svg">
<path d="M8.54779 22.7527C17.6048 22.7527 22.5578 15.2491 22.5578 8.74267C22.5578 8.52948 22.5534 8.31739 22.5436 8.10611C23.505 7.41114 24.3408 6.54365 25 5.55661C24.1178 5.94859 23.1684 6.21255 22.1723 6.33156C23.1889 5.72203 23.9696 4.75736 24.3378 3.60763C23.3862 4.17185 22.3326 4.58185 21.2112 4.80295C20.3124 3.84593 19.0327 3.24731 17.6168 3.24731C14.8973 3.24731 12.692 5.45261 12.692 8.1708C12.692 8.55732 12.7354 8.93293 12.8194 9.29351C8.7274 9.08797 5.09859 7.12835 2.67028 4.14919C2.24691 4.87665 2.00315 5.7223 2.00315 6.62391C2.00315 8.33213 2.87255 9.84027 4.19452 10.7228C3.38682 10.6979 2.62797 10.4757 1.96439 10.1067C1.9633 10.1272 1.9633 10.1479 1.9633 10.1695C1.9633 12.5544 3.66087 14.5454 5.91366 14.9966C5.50012 15.1093 5.06501 15.1699 4.61571 15.1699C4.29852 15.1699 3.99007 15.1383 3.69008 15.0812C4.31681 17.0373 6.13477 18.4611 8.29011 18.5012C6.60454 19.8221 4.48141 20.6091 2.17457 20.6091C1.77741 20.6091 1.38543 20.5864 1 20.5408C3.17909 21.9373 5.76653 22.7527 8.54779 22.7527Z" fill="white"/>
</svg>
