<svg width="27" height="23" viewBox="0 0 27 23" fill="none" xmlns="http://www.w3.org/2000/svg">
<g filter="url(#filter0_d_333_1704)">
<path d="M20.2177 5.42419C19.615 5.66527 18.9743 5.83656 18.3018 5.91269C19.0124 5.49398 19.5643 4.84688 19.8561 4.07289C19.8751 4.02214 19.818 3.97773 19.7736 4.00311C19.1012 4.37741 18.3716 4.65021 17.5913 4.80247C16.9251 4.10461 15.9799 3.66687 14.9331 3.66687C12.922 3.66687 11.2916 5.27193 11.2916 7.2513C11.2916 7.53044 11.3233 7.80323 11.3867 8.06969C8.36692 7.91743 5.68971 6.50269 3.89432 4.34569C3.88798 4.333 3.86894 4.33935 3.8626 4.34569C3.55808 4.87225 3.38679 5.47494 3.38679 6.12204C3.38679 7.34011 4.00218 8.41227 4.94745 9.06571C4.96648 9.0784 4.95379 9.11012 4.93476 9.10378C4.37648 9.07206 3.85625 8.9198 3.39313 8.67238C3.38044 8.66603 3.36142 8.67238 3.36776 8.69141C3.3741 8.85001 3.4312 9.55421 3.61518 10.0046C4.07196 11.1212 5.06164 11.9777 6.2924 12.2251C5.98788 12.3076 5.66433 12.352 5.32809 12.352C5.10605 12.352 4.89035 12.3329 4.67465 12.2885C4.66196 12.2885 4.64927 12.3012 4.64927 12.3139C5.11874 13.7033 6.42563 14.7183 7.97994 14.7691C7.99897 14.7691 8.01165 14.7945 7.99262 14.8071C6.75551 15.7461 5.20121 16.3044 3.51367 16.3044C3.22184 16.3044 2.93002 16.2853 2.64453 16.2536C4.25594 17.2687 6.17186 17.865 8.22736 17.865C11.0632 17.865 13.3534 16.888 15.0536 15.4035C16.7665 13.9063 17.8831 11.8825 18.3462 9.82701C18.5112 9.10378 18.5936 8.3742 18.5936 7.66366C18.5936 7.5114 18.5873 7.3528 18.581 7.20054C19.2407 6.73108 19.8181 6.15376 20.2875 5.50032C20.3192 5.46225 20.2685 5.39881 20.2177 5.42419Z" fill="white"/>
</g>
<defs>
<filter id="filter0_d_333_1704" x="0.644531" y="0.66687" width="25.6528" height="22.1981" filterUnits="userSpaceOnUse" color-interpolation-filters="sRGB">
<feFlood flood-opacity="0" result="BackgroundImageFix"/>
<feColorMatrix in="SourceAlpha" type="matrix" values="0 0 0 0 0 0 0 0 0 0 0 0 0 0 0 0 0 0 127 0" result="hardAlpha"/>
<feOffset dx="2" dy="1"/>
<feGaussianBlur stdDeviation="2"/>
<feComposite in2="hardAlpha" operator="out"/>
<feColorMatrix type="matrix" values="0 0 0 0 0.364948 0 0 0 0 0.515426 0 0 0 0 0.595833 0 0 0 0.35 0"/>
<feBlend mode="normal" in2="BackgroundImageFix" result="effect1_dropShadow_333_1704"/>
<feBlend mode="normal" in="SourceGraphic" in2="effect1_dropShadow_333_1704" result="shape"/>
</filter>
</defs>
</svg>
