<svg width="25" height="27" viewBox="0 0 25 27" fill="none" xmlns="http://www.w3.org/2000/svg">
<g filter="url(#filter0_d_333_1714)">
<path d="M22.5419 9.79775C22.4047 4.36862 18.0079 0.115479 12.5395 0.115479C7.16267 0.115479 2.77233 4.28369 2.54366 9.60828C2.53713 9.75201 2.5306 9.90228 2.5306 10.046C2.5306 11.81 3.00099 13.5413 3.89605 15.057C3.91565 15.0962 3.92218 15.1354 3.90911 15.1746L2.1386 20.4143C2.11247 20.4861 2.18434 20.5515 2.2562 20.5319L7.71146 18.794C7.75066 18.781 7.78986 18.7875 7.82253 18.8071C9.27291 19.578 10.8997 19.9831 12.5461 19.9831C18.0667 19.9831 22.555 15.5274 22.555 10.046C22.5485 9.97415 22.5419 9.79775 22.5419 9.79775ZM5.78415 14.5213C4.8891 13.195 4.41217 11.6532 4.41217 10.046C4.41217 9.79122 4.42524 9.53642 4.45137 9.26202C4.85643 5.10688 8.33212 1.97745 12.5395 1.97745C16.7535 1.97745 20.3141 5.24408 20.6408 9.41229C20.6604 9.66055 20.6669 9.85655 20.6669 10.0395C20.6669 14.4886 17.0213 18.1015 12.5395 18.1015C11.3439 18.1015 10.1745 17.8402 9.10304 17.3436C8.80251 17.2064 8.24065 16.8667 8.05772 16.7557C8.01852 16.7361 7.97932 16.7295 7.94012 16.7426L5.19616 17.618C5.13083 17.6376 5.07203 17.5788 5.09816 17.5135L5.98668 14.9002C5.99975 14.8545 5.99322 14.8087 5.96709 14.7695C5.90829 14.7042 5.81682 14.5801 5.78415 14.5213Z" fill="white"/>
<path d="M17.2961 12.2542C17.2307 12.1562 16.7995 11.9472 16.7995 11.9472C16.6297 11.8622 15.3753 11.2481 15.1401 11.1632C14.9376 11.0913 14.7089 11.0064 14.5064 11.3134C14.3496 11.5421 13.8923 12.0778 13.7485 12.2412C13.644 12.3588 13.546 12.398 13.3173 12.2804C13.2781 12.2608 12.1609 11.7838 11.39 11.1044C10.704 10.5033 10.2336 9.75852 10.0638 9.46452C9.95924 9.28813 10.0246 9.20319 10.1552 9.07253C10.2336 8.99413 10.5864 8.56947 10.6191 8.52374C10.6779 8.4388 10.7759 8.22974 10.7759 8.22974C10.8804 8.02721 10.8151 7.85081 10.7563 7.73974C10.7171 7.66134 10.0703 6.11297 10.0115 5.96923C9.82857 5.53151 9.63258 5.51191 9.44311 5.51844C9.35165 5.52498 8.50232 5.53151 8.22793 5.8255L8.1822 5.87777C7.91433 6.1587 7.36554 6.74669 7.36554 7.87695C7.36554 8.13828 7.40474 8.41267 7.4962 8.7132C7.653 9.26199 7.96007 9.85652 8.37166 10.4053C8.37819 10.4184 9.00538 11.2808 9.31245 11.6401C10.299 12.7703 11.4096 13.6131 12.5333 14.0509C13.9641 14.6127 14.5782 14.7368 14.9245 14.7368C15.0748 14.7368 15.3949 14.6585 15.4668 14.6519C15.9045 14.6127 16.9433 14.0705 17.1654 13.4629C17.3679 12.8879 17.3745 12.3849 17.2961 12.2542Z" fill="white"/>
</g>
<defs>
<filter id="filter0_d_333_1714" x="0.133118" y="0.115479" width="24.4219" height="26.4199" filterUnits="userSpaceOnUse" color-interpolation-filters="sRGB">
<feFlood flood-opacity="0" result="BackgroundImageFix"/>
<feColorMatrix in="SourceAlpha" type="matrix" values="0 0 0 0 0 0 0 0 0 0 0 0 0 0 0 0 0 0 127 0" result="hardAlpha"/>
<feOffset dy="4"/>
<feGaussianBlur stdDeviation="1"/>
<feComposite in2="hardAlpha" operator="out"/>
<feColorMatrix type="matrix" values="0 0 0 0 0.0947917 0 0 0 0 0.175 0 0 0 0 0.154583 0 0 0 0.09 0"/>
<feBlend mode="normal" in2="BackgroundImageFix" result="effect1_dropShadow_333_1714"/>
<feBlend mode="normal" in="SourceGraphic" in2="effect1_dropShadow_333_1714" result="shape"/>
</filter>
</defs>
</svg>
